<svg width="24" height="24" viewBox="0 0 24 24" fill="none" xmlns="http://www.w3.org/2000/svg">
<circle cx="12" cy="12" r="10" stroke="#2B2928" stroke-width="1.5"/>
<path d="M11.8239 19L8.42188 13.0599V12.2679H8.81788C9.45388 12.2679 9.98788 12.208 10.4199 12.088C10.8639 11.9679 11.2119 11.7699 11.4639 11.4939C11.7159 11.2179 11.8659 10.8399 11.9139 10.3599H8.42188V9.20795H11.8959C11.8119 8.76395 11.6439 8.40395 11.3919 8.12795C11.1399 7.83995 10.7979 7.62995 10.3659 7.49795C9.94588 7.36595 9.42988 7.29995 8.81788 7.29995H8.42188V6.14795H15.8739V7.29995H12.4719C12.7479 7.52795 12.9759 7.79795 13.1559 8.10995C13.3359 8.42195 13.4499 8.78795 13.4979 9.20795H15.8739V10.3599H13.5339C13.4499 11.2359 13.1139 11.92 12.5259 12.4119C11.9499 12.8919 11.1819 13.198 10.2219 13.3299L13.6599 19H11.8239Z" fill="#2B2928"/>
</svg>
