<svg width="24" height="24" viewBox="0 0 24 24" fill="none" xmlns="http://www.w3.org/2000/svg">
<path d="M4.94531 22.1199H18.6858" stroke="#2B2928" stroke-width="1.5" stroke-linecap="round" stroke-linejoin="round"/>
<path d="M12.5645 2.49072C12.5645 2.07651 12.2287 1.74072 11.8145 1.74072C11.4002 1.74072 11.0645 2.07651 11.0645 2.49072H12.5645ZM11.0645 2.49072V21.1385H12.5645V2.49072H11.0645Z" fill="#2B2928"/>
<path d="M2.20275 14.8834L5.43512 7.39795L8.66749 14.8834C8.78763 15.1617 8.70966 15.4858 8.47613 15.6789C6.71147 17.1384 4.15878 17.1384 2.39411 15.6789C2.16058 15.4858 2.08261 15.1617 2.20275 14.8834Z" stroke="#2B2928" stroke-width="1.5" stroke-linejoin="round"/>
<path d="M14.9625 12.9205L18.1949 5.43506L21.4273 12.9205C21.5474 13.1988 21.4694 13.5229 21.2359 13.716C19.4712 15.1755 16.9185 15.1755 15.1539 13.716C14.9203 13.5229 14.8424 13.1988 14.9625 12.9205Z" stroke="#2B2928" stroke-width="1.5" stroke-linejoin="round"/>
<path d="M4.94531 7.39799L18.1951 4.94434" stroke="#2B2928" stroke-width="1.5" stroke-linecap="round" stroke-linejoin="round"/>
<path d="M11.8145 2V21.6293" stroke="#2B2928" stroke-width="1.5" stroke-linecap="round" stroke-linejoin="round"/>
<circle cx="11.8155" cy="6.41656" r="2.19439" fill="#FAFAFA" stroke="#2B2928" stroke-width="1.5"/>
</svg>
