<svg width="20" height="20" viewBox="0 0 20 20" fill="none" xmlns="http://www.w3.org/2000/svg">
<rect width="20" height="20" rx="4" fill="#0E8345"/>
<path d="M7.74 13.175L9.29 14.375C9.49 14.575 9.94 14.675 10.24 14.675H12.14C12.74 14.675 13.39 14.225 13.54 13.625L14.74 9.97498C14.99 9.27498 14.54 8.67498 13.79 8.67498H11.79C11.49 8.67498 11.24 8.42498 11.29 8.07498L11.54 6.47498C11.64 6.02498 11.34 5.52498 10.89 5.37498C10.49 5.22498 9.99 5.42498 9.79 5.72498L7.74 8.77498" stroke="#FAFAFA" stroke-miterlimit="10"/>
<path d="M5.19 13.175V8.27495C5.19 7.57495 5.49 7.32495 6.19 7.32495H6.69C7.39 7.32495 7.69 7.57495 7.69 8.27495V13.175C7.69 13.875 7.39 14.125 6.69 14.125H6.19C5.49 14.125 5.19 13.875 5.19 13.175Z" stroke="#FAFAFA" stroke-linecap="round" stroke-linejoin="round"/>
</svg>
