<svg width="96" height="34" viewBox="0 0 96 34" fill="none" xmlns="http://www.w3.org/2000/svg">
<g filter="url(#filter0_d_529_6948)">
<rect x="4.5" y="2" width="87" height="26" rx="4" fill="#B43819"/>
<path d="M16.0867 15.0001L17.6933 16.6134L20.9133 13.3867" stroke="#DFF4F3" stroke-linecap="round" stroke-linejoin="round"/>
<path d="M17.6667 8.63338C18.1267 8.24005 18.88 8.24005 19.3467 8.63338L20.4 9.54005C20.6 9.71338 20.9733 9.85338 21.24 9.85338H22.3733C23.08 9.85338 23.66 10.4334 23.66 11.14V12.2734C23.66 12.5334 23.8 12.9134 23.9733 13.1134L24.88 14.1667C25.2733 14.6267 25.2733 15.38 24.88 15.8467L23.9733 16.9C23.8 17.1 23.66 17.4734 23.66 17.74V18.8734C23.66 19.58 23.08 20.16 22.3733 20.16H21.24C20.98 20.16 20.6 20.3 20.4 20.4734L19.3467 21.38C18.8867 21.7734 18.1333 21.7734 17.6667 21.38L16.6133 20.4734C16.4133 20.3 16.04 20.16 15.7733 20.16H14.62C13.9133 20.16 13.3333 19.58 13.3333 18.8734V17.7334C13.3333 17.4734 13.1933 17.1 13.0267 16.9L12.1267 15.84C11.74 15.38 11.74 14.6334 12.1267 14.1734L13.0267 13.1134C13.1933 12.9134 13.3333 12.54 13.3333 12.28V11.1334C13.3333 10.4267 13.9133 9.84671 14.62 9.84671H15.7733C16.0333 9.84671 16.4133 9.70671 16.6133 9.53338L17.6667 8.63338Z" stroke="#DFF4F3" stroke-linecap="round" stroke-linejoin="round"/>
<path d="M33.2286 20H31.6086V11.324H33.2286V20ZM44.5791 11.324V20H43.1571V14.396C43.1571 14.172 43.1691 13.93 43.1931 13.67L40.5711 18.596C40.4471 18.832 40.2571 18.95 40.0011 18.95H39.7731C39.5171 18.95 39.3271 18.832 39.2031 18.596L36.5511 13.652C36.5631 13.784 36.5731 13.914 36.5811 14.042C36.5891 14.17 36.5931 14.288 36.5931 14.396V20H35.1711V11.324H36.3891C36.4611 11.324 36.5231 11.326 36.5751 11.33C36.6271 11.334 36.6731 11.344 36.7131 11.36C36.7571 11.376 36.7951 11.402 36.8271 11.438C36.8631 11.474 36.8971 11.522 36.9291 11.582L39.5271 16.4C39.5951 16.528 39.6571 16.66 39.7131 16.796C39.7731 16.932 39.8311 17.072 39.8871 17.216C39.9431 17.068 40.0011 16.926 40.0611 16.79C40.1211 16.65 40.1851 16.516 40.2531 16.388L42.8151 11.582C42.8471 11.522 42.8811 11.474 42.9171 11.438C42.9531 11.402 42.9911 11.376 43.0311 11.36C43.0751 11.344 43.1231 11.334 43.1751 11.33C43.2271 11.326 43.2891 11.324 43.3611 11.324H44.5791ZM54.0528 12.902C54.0048 12.986 53.9528 13.048 53.8968 13.088C53.8448 13.124 53.7788 13.142 53.6988 13.142C53.6148 13.142 53.5228 13.112 53.4228 13.052C53.3268 12.988 53.2108 12.918 53.0748 12.842C52.9388 12.766 52.7788 12.698 52.5948 12.638C52.4148 12.574 52.2008 12.542 51.9528 12.542C51.7288 12.542 51.5328 12.57 51.3648 12.626C51.1968 12.678 51.0548 12.752 50.9388 12.848C50.8268 12.944 50.7428 13.06 50.6868 13.196C50.6308 13.328 50.6028 13.474 50.6028 13.634C50.6028 13.838 50.6588 14.008 50.7708 14.144C50.8868 14.28 51.0388 14.396 51.2268 14.492C51.4148 14.588 51.6288 14.674 51.8688 14.75C52.1088 14.826 52.3548 14.908 52.6068 14.996C52.8588 15.08 53.1048 15.18 53.3448 15.296C53.5848 15.408 53.7988 15.552 53.9868 15.728C54.1748 15.9 54.3248 16.112 54.4368 16.364C54.5528 16.616 54.6108 16.922 54.6108 17.282C54.6108 17.674 54.5428 18.042 54.4068 18.386C54.2748 18.726 54.0788 19.024 53.8188 19.28C53.5628 19.532 53.2488 19.732 52.8768 19.88C52.5048 20.024 52.0788 20.096 51.5988 20.096C51.3228 20.096 51.0508 20.068 50.7828 20.012C50.5148 19.96 50.2568 19.884 50.0088 19.784C49.7648 19.684 49.5348 19.564 49.3188 19.424C49.1028 19.284 48.9108 19.128 48.7428 18.956L49.2168 18.182C49.2568 18.126 49.3088 18.08 49.3728 18.044C49.4368 18.004 49.5048 17.984 49.5768 17.984C49.6768 17.984 49.7848 18.026 49.9008 18.11C50.0168 18.19 50.1548 18.28 50.3148 18.38C50.4748 18.48 50.6608 18.572 50.8728 18.656C51.0888 18.736 51.3468 18.776 51.6468 18.776C52.1068 18.776 52.4628 18.668 52.7148 18.452C52.9668 18.232 53.0928 17.918 53.0928 17.51C53.0928 17.282 53.0348 17.096 52.9188 16.952C52.8068 16.808 52.6568 16.688 52.4688 16.592C52.2808 16.492 52.0668 16.408 51.8268 16.34C51.5868 16.272 51.3428 16.198 51.0948 16.118C50.8468 16.038 50.6028 15.942 50.3628 15.83C50.1228 15.718 49.9088 15.572 49.7208 15.392C49.5328 15.212 49.3808 14.988 49.2648 14.72C49.1528 14.448 49.0968 14.114 49.0968 13.718C49.0968 13.402 49.1588 13.094 49.2828 12.794C49.4108 12.494 49.5948 12.228 49.8348 11.996C50.0748 11.764 50.3708 11.578 50.7228 11.438C51.0748 11.298 51.4788 11.228 51.9348 11.228C52.4468 11.228 52.9188 11.308 53.3508 11.468C53.7828 11.628 54.1508 11.852 54.4548 12.14L54.0528 12.902ZM57.1847 14.504C57.4247 14.28 57.6887 14.098 57.9767 13.958C58.2647 13.818 58.6027 13.748 58.9907 13.748C59.3267 13.748 59.6247 13.806 59.8847 13.922C60.1447 14.034 60.3607 14.194 60.5327 14.402C60.7087 14.606 60.8407 14.852 60.9287 15.14C61.0207 15.424 61.0667 15.738 61.0667 16.082V20H59.5847V16.082C59.5847 15.706 59.4987 15.416 59.3267 15.212C59.1547 15.004 58.8927 14.9 58.5407 14.9C58.2847 14.9 58.0447 14.958 57.8207 15.074C57.5967 15.19 57.3847 15.348 57.1847 15.548V20H55.7027V11.084H57.1847V14.504ZM65.7281 17.372C65.3001 17.392 64.9401 17.43 64.6481 17.486C64.3561 17.538 64.1221 17.606 63.9461 17.69C63.7701 17.774 63.6441 17.872 63.5681 17.984C63.4921 18.096 63.4541 18.218 63.4541 18.35C63.4541 18.61 63.5301 18.796 63.6821 18.908C63.8381 19.02 64.0401 19.076 64.2881 19.076C64.5921 19.076 64.8541 19.022 65.0741 18.914C65.2981 18.802 65.5161 18.634 65.7281 18.41V17.372ZM62.3321 14.702C63.0401 14.054 63.8921 13.73 64.8881 13.73C65.2481 13.73 65.5701 13.79 65.8541 13.91C66.1381 14.026 66.3781 14.19 66.5741 14.402C66.7701 14.61 66.9181 14.86 67.0181 15.152C67.1221 15.444 67.1741 15.764 67.1741 16.112V20H66.5021C66.3621 20 66.2541 19.98 66.1781 19.94C66.1021 19.896 66.0421 19.81 65.9981 19.682L65.8661 19.238C65.7101 19.378 65.5581 19.502 65.4101 19.61C65.2621 19.714 65.1081 19.802 64.9481 19.874C64.7881 19.946 64.6161 20 64.4321 20.036C64.2521 20.076 64.0521 20.096 63.8321 20.096C63.5721 20.096 63.3321 20.062 63.1121 19.994C62.8921 19.922 62.7021 19.816 62.5421 19.676C62.3821 19.536 62.2581 19.362 62.1701 19.154C62.0821 18.946 62.0381 18.704 62.0381 18.428C62.0381 18.272 62.0641 18.118 62.1161 17.966C62.1681 17.81 62.2521 17.662 62.3681 17.522C62.4881 17.382 62.6421 17.25 62.8301 17.126C63.0181 17.002 63.2481 16.894 63.5201 16.802C63.7961 16.71 64.1161 16.636 64.4801 16.58C64.8441 16.52 65.2601 16.484 65.7281 16.472V16.112C65.7281 15.7 65.6401 15.396 65.4641 15.2C65.2881 15 65.0341 14.9 64.7021 14.9C64.4621 14.9 64.2621 14.928 64.1021 14.984C63.9461 15.04 63.8081 15.104 63.6881 15.176C63.5681 15.244 63.4581 15.306 63.3581 15.362C63.2621 15.418 63.1541 15.446 63.0341 15.446C62.9301 15.446 62.8421 15.42 62.7701 15.368C62.6981 15.312 62.6401 15.248 62.5961 15.176L62.3321 14.702ZM69.9679 14.912C70.1599 14.544 70.3879 14.256 70.6519 14.048C70.9159 13.836 71.2279 13.73 71.5879 13.73C71.8719 13.73 72.0999 13.792 72.2719 13.916L72.1759 15.026C72.1559 15.098 72.1259 15.15 72.0859 15.182C72.0499 15.21 71.9999 15.224 71.9359 15.224C71.8759 15.224 71.7859 15.214 71.6659 15.194C71.5499 15.174 71.4359 15.164 71.3239 15.164C71.1599 15.164 71.0139 15.188 70.8859 15.236C70.7579 15.284 70.6419 15.354 70.5379 15.446C70.4379 15.534 70.3479 15.642 70.2679 15.77C70.1919 15.898 70.1199 16.044 70.0519 16.208V20H68.5699V13.844H69.4399C69.5919 13.844 69.6979 13.872 69.7579 13.928C69.8179 13.98 69.8579 14.076 69.8779 14.216L69.9679 14.912ZM76.8367 16.214C76.8367 16.022 76.8087 15.842 76.7527 15.674C76.7007 15.502 76.6207 15.352 76.5127 15.224C76.4047 15.096 76.2667 14.996 76.0987 14.924C75.9347 14.848 75.7427 14.81 75.5227 14.81C75.0947 14.81 74.7567 14.932 74.5087 15.176C74.2647 15.42 74.1087 15.766 74.0407 16.214H76.8367ZM74.0107 17.108C74.0347 17.424 74.0907 17.698 74.1787 17.93C74.2667 18.158 74.3827 18.348 74.5267 18.5C74.6707 18.648 74.8407 18.76 75.0367 18.836C75.2367 18.908 75.4567 18.944 75.6967 18.944C75.9367 18.944 76.1427 18.916 76.3147 18.86C76.4907 18.804 76.6427 18.742 76.7707 18.674C76.9027 18.606 77.0167 18.544 77.1127 18.488C77.2127 18.432 77.3087 18.404 77.4007 18.404C77.5247 18.404 77.6167 18.45 77.6767 18.542L78.1027 19.082C77.9387 19.274 77.7547 19.436 77.5507 19.568C77.3467 19.696 77.1327 19.8 76.9087 19.88C76.6887 19.956 76.4627 20.01 76.2307 20.042C76.0027 20.074 75.7807 20.09 75.5647 20.09C75.1367 20.09 74.7387 20.02 74.3707 19.88C74.0027 19.736 73.6827 19.526 73.4107 19.25C73.1387 18.97 72.9247 18.626 72.7687 18.218C72.6127 17.806 72.5347 17.33 72.5347 16.79C72.5347 16.37 72.6027 15.976 72.7387 15.608C72.8747 15.236 73.0687 14.914 73.3207 14.642C73.5767 14.366 73.8867 14.148 74.2507 13.988C74.6187 13.828 75.0327 13.748 75.4927 13.748C75.8807 13.748 76.2387 13.81 76.5667 13.934C76.8947 14.058 77.1767 14.24 77.4127 14.48C77.6487 14.716 77.8327 15.008 77.9647 15.356C78.1007 15.7 78.1687 16.094 78.1687 16.538C78.1687 16.762 78.1447 16.914 78.0967 16.994C78.0487 17.07 77.9567 17.108 77.8207 17.108H74.0107ZM83.1448 15.416C82.9768 15.212 82.7928 15.068 82.5928 14.984C82.3968 14.9 82.1848 14.858 81.9568 14.858C81.7328 14.858 81.5308 14.9 81.3508 14.984C81.1708 15.068 81.0168 15.196 80.8888 15.368C80.7608 15.536 80.6628 15.752 80.5948 16.016C80.5268 16.276 80.4928 16.584 80.4928 16.94C80.4928 17.3 80.5208 17.606 80.5768 17.858C80.6368 18.106 80.7208 18.31 80.8288 18.47C80.9368 18.626 81.0688 18.74 81.2248 18.812C81.3808 18.88 81.5548 18.914 81.7468 18.914C82.0548 18.914 82.3168 18.85 82.5328 18.722C82.7488 18.594 82.9528 18.412 83.1448 18.176V15.416ZM84.6268 11.084V20H83.7208C83.5248 20 83.4008 19.91 83.3488 19.73L83.2228 19.136C82.9748 19.42 82.6888 19.65 82.3648 19.826C82.0448 20.002 81.6708 20.09 81.2428 20.09C80.9068 20.09 80.5988 20.02 80.3188 19.88C80.0388 19.74 79.7968 19.538 79.5928 19.274C79.3928 19.006 79.2368 18.676 79.1248 18.284C79.0168 17.892 78.9628 17.444 78.9628 16.94C78.9628 16.484 79.0248 16.06 79.1488 15.668C79.2728 15.276 79.4508 14.936 79.6828 14.648C79.9148 14.36 80.1928 14.136 80.5168 13.976C80.8408 13.812 81.2048 13.73 81.6088 13.73C81.9528 13.73 82.2468 13.784 82.4908 13.892C82.7348 14 82.9528 14.146 83.1448 14.33V11.084H84.6268Z" fill="#FAFAFA"/>
</g>
<defs>
<filter id="filter0_d_529_6948" x="0.5" y="0" width="95" height="34" filterUnits="userSpaceOnUse" color-interpolation-filters="sRGB">
<feFlood flood-opacity="0" result="BackgroundImageFix"/>
<feColorMatrix in="SourceAlpha" type="matrix" values="0 0 0 0 0 0 0 0 0 0 0 0 0 0 0 0 0 0 127 0" result="hardAlpha"/>
<feOffset dy="2"/>
<feGaussianBlur stdDeviation="2"/>
<feComposite in2="hardAlpha" operator="out"/>
<feColorMatrix type="matrix" values="0 0 0 0 0 0 0 0 0 0 0 0 0 0 0 0 0 0 0.15 0"/>
<feBlend mode="normal" in2="BackgroundImageFix" result="effect1_dropShadow_529_6948"/>
<feBlend mode="normal" in="SourceGraphic" in2="effect1_dropShadow_529_6948" result="shape"/>
</filter>
</defs>
</svg>
