<svg width="32" height="33" viewBox="0 0 32 33" fill="none" xmlns="http://www.w3.org/2000/svg">
<rect y="0.5" width="32" height="32" rx="16" fill="#E3E3E3"/>
<path d="M16.0166 8.92505C13.2583 8.92505 11.0166 11.1667 11.0166 13.925V16.3334C11.0166 16.8417 10.8 17.6167 10.5416 18.05L9.58328 19.6417C8.99162 20.625 9.39995 21.7167 10.4833 22.0834C14.075 23.2834 17.95 23.2834 21.5416 22.0834C22.55 21.75 22.9916 20.5584 22.4416 19.6417L21.4833 18.05C21.2333 17.6167 21.0166 16.8417 21.0166 16.3334V13.925C21.0166 11.175 18.7666 8.92505 16.0166 8.92505Z" stroke="#2B2928" stroke-width="1.25" stroke-miterlimit="10" stroke-linecap="round"/>
<path d="M17.5583 9.1667C17.3 9.0917 17.0333 9.03337 16.7583 9.00003C15.9583 8.90003 15.1916 8.95837 14.475 9.1667C14.7166 8.55003 15.3166 8.1167 16.0166 8.1167C16.7166 8.1167 17.3166 8.55003 17.5583 9.1667Z" stroke="#2B2928" stroke-width="1.25" stroke-miterlimit="10" stroke-linecap="round" stroke-linejoin="round"/>
<path d="M18.5167 22.3833C18.5167 23.7583 17.3917 24.8833 16.0167 24.8833C15.3334 24.8833 14.7001 24.6 14.2501 24.15C13.8001 23.7 13.5167 23.0666 13.5167 22.3833" stroke="#2B2928" stroke-width="1.25" stroke-miterlimit="10"/>
</svg>
