<svg width="24" height="24" viewBox="0 0 24 24" fill="none" xmlns="http://www.w3.org/2000/svg">
<path d="M10 6H14C16 6 16 5 16 4C16 2 15 2 14 2H10C9 2 8 2 8 4C8 6 9 6 10 6Z" stroke="#292D32" stroke-width="1.5" stroke-miterlimit="10" stroke-linecap="round" stroke-linejoin="round"/>
<path d="M16 4.02002C19.33 4.20002 21 5.43002 21 10V16C21 20 20 22 15 22H9C4 22 3 20 3 16V10C3 5.44002 4.67 4.20002 8 4.02002" stroke="#292D32" stroke-width="1.5" stroke-miterlimit="10" stroke-linecap="round" stroke-linejoin="round"/>
<path d="M16.5103 14.718V15.642H18.3643V16.56H16.5103V18H15.3223V13.8H18.6163V14.718H16.5103Z" fill="#2B2928"/>
<path d="M10.3652 13.8H12.3512C12.8112 13.8 13.2192 13.886 13.5752 14.058C13.9312 14.23 14.2072 14.474 14.4032 14.79C14.5992 15.106 14.6972 15.476 14.6972 15.9C14.6972 16.324 14.5992 16.694 14.4032 17.01C14.2072 17.326 13.9312 17.57 13.5752 17.742C13.2192 17.914 12.8112 18 12.3512 18H10.3652V13.8ZM12.3032 17.052C12.6632 17.052 12.9512 16.95 13.1672 16.746C13.3872 16.542 13.4972 16.26 13.4972 15.9C13.4972 15.54 13.3872 15.258 13.1672 15.054C12.9512 14.85 12.6632 14.748 12.3032 14.748H11.5532V17.052H12.3032Z" fill="#2B2928"/>
<path d="M7.92 13.8C8.3 13.8 8.63 13.864 8.91 13.992C9.19 14.116 9.406 14.296 9.558 14.532C9.71 14.764 9.786 15.038 9.786 15.354C9.786 15.67 9.71 15.944 9.558 16.176C9.406 16.408 9.19 16.588 8.91 16.716C8.63 16.84 8.3 16.902 7.92 16.902H7.188V18H6V13.8H7.92ZM7.848 15.966C8.092 15.966 8.276 15.914 8.4 15.81C8.524 15.702 8.586 15.55 8.586 15.354C8.586 15.158 8.524 15.006 8.4 14.898C8.276 14.79 8.092 14.736 7.848 14.736H7.188V15.966H7.848Z" fill="#2B2928"/>
</svg>
