<svg width="20" height="20" viewBox="0 0 20 20" fill="none" xmlns="http://www.w3.org/2000/svg">
<rect width="20" height="20" rx="4" fill="#DE1135"/>
<path d="M12.26 6.82495L10.71 5.62495C10.51 5.42495 10.06 5.32495 9.75999 5.32495H7.85999C7.25999 5.32495 6.60999 5.77495 6.45999 6.37495L5.25999 10.025C5.00999 10.725 5.45999 11.325 6.20999 11.325H8.20999C8.50999 11.325 8.75999 11.575 8.70999 11.925L8.45999 13.525C8.35999 13.975 8.65999 14.475 9.10999 14.625C9.50999 14.775 10.01 14.575 10.21 14.275L12.26 11.225" stroke="#FAFAFA" stroke-miterlimit="10"/>
<path d="M14.81 6.825V11.725C14.81 12.425 14.51 12.675 13.81 12.675H13.31C12.61 12.675 12.31 12.425 12.31 11.725V6.825C12.31 6.125 12.61 5.875 13.31 5.875H13.81C14.51 5.875 14.81 6.125 14.81 6.825Z" stroke="#FAFAFA" stroke-linecap="round" stroke-linejoin="round"/>
</svg>
