<svg width="66" height="26" viewBox="0 0 66 26" fill="none" xmlns="http://www.w3.org/2000/svg">
<rect x="1" y="0.5" width="64" height="25" rx="3.5" fill="#FAFAFA"/>
<rect x="1" y="0.5" width="64" height="25" rx="3.5" stroke="#CCCBCB"/>
<path d="M9.25 13.75L12.75 17.25L19.75 9.75" stroke="#0E8345" stroke-width="1.5" stroke-linecap="round" stroke-linejoin="round"/>
<path d="M32.381 13.536C32.709 13.536 32.997 13.496 33.245 13.416C33.497 13.336 33.707 13.224 33.875 13.08C34.043 12.932 34.169 12.758 34.253 12.558C34.337 12.354 34.379 12.13 34.379 11.886C34.379 11.39 34.215 11.016 33.887 10.764C33.563 10.512 33.075 10.386 32.423 10.386H31.217V13.536H32.381ZM36.401 18H35.261C35.033 18 34.867 17.91 34.763 17.73L32.633 14.742C32.565 14.642 32.491 14.572 32.411 14.532C32.331 14.488 32.211 14.466 32.051 14.466H31.217V18H29.939V9.384H32.423C32.979 9.384 33.457 9.442 33.857 9.558C34.261 9.67 34.593 9.832 34.853 10.044C35.117 10.252 35.311 10.504 35.435 10.8C35.563 11.096 35.627 11.428 35.627 11.796C35.627 12.096 35.581 12.378 35.489 12.642C35.397 12.906 35.261 13.144 35.081 13.356C34.905 13.564 34.689 13.744 34.433 13.896C34.177 14.048 33.887 14.164 33.563 14.244C33.723 14.34 33.861 14.474 33.977 14.646L36.401 18ZM42.8553 16.962L42.8493 18H37.5093V9.384H42.8493V10.422H38.7933V13.152H42.0573V14.154H38.7933V16.962H42.8553ZM46.877 13.536C47.205 13.536 47.493 13.496 47.741 13.416C47.993 13.336 48.203 13.224 48.371 13.08C48.539 12.932 48.665 12.758 48.749 12.558C48.833 12.354 48.875 12.13 48.875 11.886C48.875 11.39 48.711 11.016 48.383 10.764C48.059 10.512 47.571 10.386 46.919 10.386H45.713V13.536H46.877ZM50.897 18H49.757C49.529 18 49.363 17.91 49.259 17.73L47.129 14.742C47.061 14.642 46.987 14.572 46.907 14.532C46.827 14.488 46.707 14.466 46.547 14.466H45.713V18H44.435V9.384H46.919C47.475 9.384 47.953 9.442 48.353 9.558C48.757 9.67 49.089 9.832 49.349 10.044C49.613 10.252 49.807 10.504 49.931 10.8C50.059 11.096 50.123 11.428 50.123 11.796C50.123 12.096 50.077 12.378 49.985 12.642C49.893 12.906 49.757 13.144 49.577 13.356C49.401 13.564 49.185 13.744 48.929 13.896C48.673 14.048 48.383 14.164 48.059 14.244C48.219 14.34 48.357 14.474 48.473 14.646L50.897 18ZM56.5834 14.79L55.3054 11.448C55.2134 11.22 55.1214 10.932 55.0294 10.584C54.9854 10.756 54.9394 10.916 54.8914 11.064C54.8474 11.212 54.8034 11.344 54.7594 11.46L53.4874 14.79H56.5834ZM59.1094 18H58.1254C58.0134 18 57.9214 17.972 57.8494 17.916C57.7774 17.86 57.7254 17.788 57.6934 17.7L56.9314 15.702H53.1334L52.3714 17.7C52.3434 17.776 52.2914 17.846 52.2154 17.91C52.1394 17.97 52.0474 18 51.9394 18H50.9554L54.3874 9.384H55.6774L59.1094 18Z" fill="#252626"/>
</svg>
