<svg width="69" height="34" viewBox="0 0 69 34" fill="none" xmlns="http://www.w3.org/2000/svg">
<g filter="url(#filter0_d_529_6955)">
<rect x="4.5" y="2" width="60" height="26" rx="4" fill="#C2EFE9"/>
<path d="M16.5489 12.902C16.5009 12.986 16.4489 13.048 16.3929 13.088C16.3409 13.124 16.2749 13.142 16.1949 13.142C16.1109 13.142 16.0189 13.112 15.9189 13.052C15.8229 12.988 15.7069 12.918 15.5709 12.842C15.4349 12.766 15.2749 12.698 15.0909 12.638C14.9109 12.574 14.6969 12.542 14.4489 12.542C14.2249 12.542 14.0289 12.57 13.8609 12.626C13.6929 12.678 13.5509 12.752 13.4349 12.848C13.3229 12.944 13.2389 13.06 13.1829 13.196C13.1269 13.328 13.0989 13.474 13.0989 13.634C13.0989 13.838 13.1549 14.008 13.2669 14.144C13.3829 14.28 13.5349 14.396 13.7229 14.492C13.9109 14.588 14.1249 14.674 14.3649 14.75C14.6049 14.826 14.8509 14.908 15.1029 14.996C15.3549 15.08 15.6009 15.18 15.8409 15.296C16.0809 15.408 16.2949 15.552 16.4829 15.728C16.6709 15.9 16.8209 16.112 16.9329 16.364C17.0489 16.616 17.1069 16.922 17.1069 17.282C17.1069 17.674 17.0389 18.042 16.9029 18.386C16.7709 18.726 16.5749 19.024 16.3149 19.28C16.0589 19.532 15.7449 19.732 15.3729 19.88C15.0009 20.024 14.5749 20.096 14.0949 20.096C13.8189 20.096 13.5469 20.068 13.2789 20.012C13.0109 19.96 12.7529 19.884 12.5049 19.784C12.2609 19.684 12.0309 19.564 11.8149 19.424C11.5989 19.284 11.4069 19.128 11.2389 18.956L11.7129 18.182C11.7529 18.126 11.8049 18.08 11.8689 18.044C11.9329 18.004 12.0009 17.984 12.0729 17.984C12.1729 17.984 12.2809 18.026 12.3969 18.11C12.5129 18.19 12.6509 18.28 12.8109 18.38C12.9709 18.48 13.1569 18.572 13.3689 18.656C13.5849 18.736 13.8429 18.776 14.1429 18.776C14.6029 18.776 14.9589 18.668 15.2109 18.452C15.4629 18.232 15.5889 17.918 15.5889 17.51C15.5889 17.282 15.5309 17.096 15.4149 16.952C15.3029 16.808 15.1529 16.688 14.9649 16.592C14.7769 16.492 14.5629 16.408 14.3229 16.34C14.0829 16.272 13.8389 16.198 13.5909 16.118C13.3429 16.038 13.0989 15.942 12.8589 15.83C12.6189 15.718 12.4049 15.572 12.2169 15.392C12.0289 15.212 11.8769 14.988 11.7609 14.72C11.6489 14.448 11.5929 14.114 11.5929 13.718C11.5929 13.402 11.6549 13.094 11.7789 12.794C11.9069 12.494 12.0909 12.228 12.3309 11.996C12.5709 11.764 12.8669 11.578 13.2189 11.438C13.5709 11.298 13.9749 11.228 14.4309 11.228C14.9429 11.228 15.4149 11.308 15.8469 11.468C16.2789 11.628 16.6469 11.852 16.9509 12.14L16.5489 12.902ZM19.7934 13.844V20H18.3054V13.844H19.7934ZM19.9974 12.05C19.9974 12.178 19.9714 12.298 19.9194 12.41C19.8674 12.522 19.7974 12.62 19.7094 12.704C19.6254 12.788 19.5254 12.856 19.4094 12.908C19.2934 12.956 19.1694 12.98 19.0374 12.98C18.9094 12.98 18.7874 12.956 18.6714 12.908C18.5594 12.856 18.4614 12.788 18.3774 12.704C18.2934 12.62 18.2254 12.522 18.1734 12.41C18.1254 12.298 18.1014 12.178 18.1014 12.05C18.1014 11.918 18.1254 11.794 18.1734 11.678C18.2254 11.562 18.2934 11.462 18.3774 11.378C18.4614 11.294 18.5594 11.228 18.6714 11.18C18.7874 11.128 18.9094 11.102 19.0374 11.102C19.1694 11.102 19.2934 11.128 19.4094 11.18C19.5254 11.228 19.6254 11.294 19.7094 11.378C19.7974 11.462 19.8674 11.562 19.9194 11.678C19.9714 11.794 19.9974 11.918 19.9974 12.05ZM23.3563 20.096C22.8203 20.096 22.4083 19.946 22.1203 19.646C21.8363 19.342 21.6943 18.924 21.6943 18.392V14.954H21.0643C20.9843 14.954 20.9163 14.928 20.8603 14.876C20.8043 14.824 20.7763 14.746 20.7763 14.642V14.054L21.7663 13.892L22.0783 12.212C22.0983 12.132 22.1363 12.07 22.1923 12.026C22.2483 11.982 22.3203 11.96 22.4083 11.96H23.1763V13.898H24.8203V14.954H23.1763V18.29C23.1763 18.482 23.2223 18.632 23.3143 18.74C23.4103 18.848 23.5403 18.902 23.7043 18.902C23.7963 18.902 23.8723 18.892 23.9323 18.872C23.9963 18.848 24.0503 18.824 24.0943 18.8C24.1423 18.776 24.1843 18.754 24.2203 18.734C24.2563 18.71 24.2923 18.698 24.3283 18.698C24.3723 18.698 24.4083 18.71 24.4363 18.734C24.4643 18.754 24.4943 18.786 24.5263 18.83L24.9703 19.55C24.7543 19.73 24.5063 19.866 24.2263 19.958C23.9463 20.05 23.6563 20.096 23.3563 20.096ZM29.6882 16.214C29.6882 16.022 29.6602 15.842 29.6042 15.674C29.5522 15.502 29.4722 15.352 29.3642 15.224C29.2562 15.096 29.1182 14.996 28.9502 14.924C28.7862 14.848 28.5942 14.81 28.3742 14.81C27.9462 14.81 27.6082 14.932 27.3602 15.176C27.1162 15.42 26.9602 15.766 26.8922 16.214H29.6882ZM26.8622 17.108C26.8862 17.424 26.9422 17.698 27.0302 17.93C27.1182 18.158 27.2342 18.348 27.3782 18.5C27.5222 18.648 27.6922 18.76 27.8882 18.836C28.0882 18.908 28.3082 18.944 28.5482 18.944C28.7882 18.944 28.9942 18.916 29.1662 18.86C29.3422 18.804 29.4942 18.742 29.6222 18.674C29.7542 18.606 29.8682 18.544 29.9642 18.488C30.0642 18.432 30.1602 18.404 30.2522 18.404C30.3762 18.404 30.4682 18.45 30.5282 18.542L30.9542 19.082C30.7902 19.274 30.6062 19.436 30.4022 19.568C30.1982 19.696 29.9842 19.8 29.7602 19.88C29.5402 19.956 29.3142 20.01 29.0822 20.042C28.8542 20.074 28.6322 20.09 28.4162 20.09C27.9882 20.09 27.5902 20.02 27.2222 19.88C26.8542 19.736 26.5342 19.526 26.2622 19.25C25.9902 18.97 25.7762 18.626 25.6202 18.218C25.4642 17.806 25.3862 17.33 25.3862 16.79C25.3862 16.37 25.4542 15.976 25.5902 15.608C25.7262 15.236 25.9202 14.914 26.1722 14.642C26.4282 14.366 26.7382 14.148 27.1022 13.988C27.4702 13.828 27.8842 13.748 28.3442 13.748C28.7322 13.748 29.0902 13.81 29.4182 13.934C29.7462 14.058 30.0282 14.24 30.2642 14.48C30.5002 14.716 30.6842 15.008 30.8162 15.356C30.9522 15.7 31.0202 16.094 31.0202 16.538C31.0202 16.762 30.9962 16.914 30.9482 16.994C30.9002 17.07 30.8082 17.108 30.6722 17.108H26.8622ZM42.273 11.324L38.769 20H37.311L33.807 11.324H35.103C35.243 11.324 35.357 11.358 35.445 11.426C35.533 11.494 35.599 11.582 35.643 11.69L37.689 16.982C37.757 17.154 37.821 17.344 37.881 17.552C37.945 17.756 38.005 17.97 38.061 18.194C38.109 17.97 38.161 17.756 38.217 17.552C38.273 17.344 38.335 17.154 38.403 16.982L40.437 11.69C40.469 11.598 40.531 11.514 40.623 11.438C40.719 11.362 40.835 11.324 40.971 11.324H42.273ZM44.4731 13.844V20H42.9851V13.844H44.4731ZM44.6771 12.05C44.6771 12.178 44.6511 12.298 44.5991 12.41C44.5471 12.522 44.4771 12.62 44.3891 12.704C44.3051 12.788 44.2051 12.856 44.0891 12.908C43.9731 12.956 43.8491 12.98 43.7171 12.98C43.5891 12.98 43.4671 12.956 43.3511 12.908C43.2391 12.856 43.1411 12.788 43.0571 12.704C42.9731 12.62 42.9051 12.522 42.8531 12.41C42.8051 12.298 42.7811 12.178 42.7811 12.05C42.7811 11.918 42.8051 11.794 42.8531 11.678C42.9051 11.562 42.9731 11.462 43.0571 11.378C43.1411 11.294 43.2391 11.228 43.3511 11.18C43.4671 11.128 43.5891 11.102 43.7171 11.102C43.8491 11.102 43.9731 11.128 44.0891 11.18C44.2051 11.228 44.3051 11.294 44.3891 11.378C44.4771 11.462 44.5471 11.562 44.5991 11.678C44.6511 11.794 44.6771 11.918 44.6771 12.05ZM49.74 15.044C49.7 15.108 49.658 15.154 49.614 15.182C49.57 15.206 49.514 15.218 49.446 15.218C49.374 15.218 49.296 15.198 49.212 15.158C49.132 15.118 49.038 15.074 48.93 15.026C48.822 14.974 48.698 14.928 48.558 14.888C48.422 14.848 48.26 14.828 48.072 14.828C47.78 14.828 47.55 14.89 47.382 15.014C47.218 15.138 47.136 15.3 47.136 15.5C47.136 15.632 47.178 15.744 47.262 15.836C47.35 15.924 47.464 16.002 47.604 16.07C47.748 16.138 47.91 16.2 48.09 16.256C48.27 16.308 48.452 16.366 48.636 16.43C48.824 16.494 49.008 16.568 49.188 16.652C49.368 16.732 49.528 16.836 49.668 16.964C49.812 17.088 49.926 17.238 50.01 17.414C50.098 17.59 50.142 17.802 50.142 18.05C50.142 18.346 50.088 18.62 49.98 18.872C49.876 19.12 49.72 19.336 49.512 19.52C49.304 19.7 49.046 19.842 48.738 19.946C48.434 20.046 48.082 20.096 47.682 20.096C47.47 20.096 47.262 20.076 47.058 20.036C46.858 20 46.664 19.948 46.476 19.88C46.292 19.812 46.12 19.732 45.96 19.64C45.804 19.548 45.666 19.448 45.546 19.34L45.888 18.776C45.932 18.708 45.984 18.656 46.044 18.62C46.104 18.584 46.18 18.566 46.272 18.566C46.364 18.566 46.45 18.592 46.53 18.644C46.614 18.696 46.71 18.752 46.818 18.812C46.926 18.872 47.052 18.928 47.196 18.98C47.344 19.032 47.53 19.058 47.754 19.058C47.93 19.058 48.08 19.038 48.204 18.998C48.332 18.954 48.436 18.898 48.516 18.83C48.6 18.762 48.66 18.684 48.696 18.596C48.736 18.504 48.756 18.41 48.756 18.314C48.756 18.17 48.712 18.052 48.624 17.96C48.54 17.868 48.426 17.788 48.282 17.72C48.142 17.652 47.98 17.592 47.796 17.54C47.616 17.484 47.43 17.424 47.238 17.36C47.05 17.296 46.864 17.222 46.68 17.138C46.5 17.05 46.338 16.94 46.194 16.808C46.054 16.676 45.94 16.514 45.852 16.322C45.768 16.13 45.726 15.898 45.726 15.626C45.726 15.374 45.776 15.134 45.876 14.906C45.976 14.678 46.122 14.48 46.314 14.312C46.51 14.14 46.752 14.004 47.04 13.904C47.332 13.8 47.668 13.748 48.048 13.748C48.472 13.748 48.858 13.818 49.206 13.958C49.554 14.098 49.844 14.282 50.076 14.51L49.74 15.044ZM52.7934 13.844V20H51.3054V13.844H52.7934ZM52.9974 12.05C52.9974 12.178 52.9714 12.298 52.9194 12.41C52.8674 12.522 52.7974 12.62 52.7094 12.704C52.6254 12.788 52.5254 12.856 52.4094 12.908C52.2934 12.956 52.1694 12.98 52.0374 12.98C51.9094 12.98 51.7874 12.956 51.6714 12.908C51.5594 12.856 51.4614 12.788 51.3774 12.704C51.2934 12.62 51.2254 12.522 51.1734 12.41C51.1254 12.298 51.1014 12.178 51.1014 12.05C51.1014 11.918 51.1254 11.794 51.1734 11.678C51.2254 11.562 51.2934 11.462 51.3774 11.378C51.4614 11.294 51.5594 11.228 51.6714 11.18C51.7874 11.128 51.9094 11.102 52.0374 11.102C52.1694 11.102 52.2934 11.128 52.4094 11.18C52.5254 11.228 52.6254 11.294 52.7094 11.378C52.7974 11.462 52.8674 11.562 52.9194 11.678C52.9714 11.794 52.9974 11.918 52.9974 12.05ZM56.3563 20.096C55.8203 20.096 55.4083 19.946 55.1203 19.646C54.8363 19.342 54.6943 18.924 54.6943 18.392V14.954H54.0643C53.9843 14.954 53.9163 14.928 53.8603 14.876C53.8043 14.824 53.7763 14.746 53.7763 14.642V14.054L54.7663 13.892L55.0783 12.212C55.0983 12.132 55.1363 12.07 55.1923 12.026C55.2483 11.982 55.3203 11.96 55.4083 11.96H56.1763V13.898H57.8203V14.954H56.1763V18.29C56.1763 18.482 56.2223 18.632 56.3143 18.74C56.4103 18.848 56.5403 18.902 56.7043 18.902C56.7963 18.902 56.8723 18.892 56.9323 18.872C56.9963 18.848 57.0503 18.824 57.0943 18.8C57.1423 18.776 57.1843 18.754 57.2203 18.734C57.2563 18.71 57.2923 18.698 57.3283 18.698C57.3723 18.698 57.4083 18.71 57.4363 18.734C57.4643 18.754 57.4943 18.786 57.5263 18.83L57.9703 19.55C57.7543 19.73 57.5063 19.866 57.2263 19.958C56.9463 20.05 56.6563 20.096 56.3563 20.096Z" fill="#2B2928"/>
</g>
<defs>
<filter id="filter0_d_529_6955" x="0.5" y="0" width="68" height="34" filterUnits="userSpaceOnUse" color-interpolation-filters="sRGB">
<feFlood flood-opacity="0" result="BackgroundImageFix"/>
<feColorMatrix in="SourceAlpha" type="matrix" values="0 0 0 0 0 0 0 0 0 0 0 0 0 0 0 0 0 0 127 0" result="hardAlpha"/>
<feOffset dy="2"/>
<feGaussianBlur stdDeviation="2"/>
<feComposite in2="hardAlpha" operator="out"/>
<feColorMatrix type="matrix" values="0 0 0 0 0 0 0 0 0 0 0 0 0 0 0 0 0 0 0.15 0"/>
<feBlend mode="normal" in2="BackgroundImageFix" result="effect1_dropShadow_529_6955"/>
<feBlend mode="normal" in="SourceGraphic" in2="effect1_dropShadow_529_6955" result="shape"/>
</filter>
</defs>
</svg>
