<svg width="24" height="24" viewBox="0 0 24 24" fill="none" xmlns="http://www.w3.org/2000/svg">
<g clip-path="url(#clip0_258_10315)">
<path d="M19.7143 6.49715V10.3192L11.8468 5.82201H11.8455L4 10.3077V6.48437L11.8455 2L19.7143 6.49715Z" fill="#FAFAFA"/>
<path d="M19.7162 13.4827V18.6896H16.3721V15.3931L16.3502 15.3803L13.5305 13.7692V21.9988H10.1877V13.7564L7.34476 15.3803V18.6896H4.00195V13.47L7.34476 11.5583L11.8462 8.9856L11.8591 8.99199L16.3721 11.5711L19.7162 13.4827Z" fill="#FAFAFA"/>
<path d="M19.7146 6.49076V10.3128L11.8574 5.82201V2L19.7146 6.49076Z" fill="black" fill-opacity="0.2"/>
<path d="M19.7146 13.4829V18.6898H16.3705V15.3933L16.3485 15.3805L13.5288 13.7694V21.999H11.8574V8.99219L16.3705 11.5713L19.7146 13.4829Z" fill="black" fill-opacity="0.2"/>
</g>
<defs>
<clipPath id="clip0_258_10315">
<rect width="15.7143" height="20" fill="white" transform="translate(4 2)"/>
</clipPath>
</defs>
</svg>
